<svg xmlns="http://www.w3.org/2000/svg" xmlns:xlink="http://www.w3.org/1999/xlink" width="76.556mm" height="55.093mm" viewBox="4031.7 3036.9 301.4 216.9"><title></title><style type="text/css">
*[layerid="1"] {stroke:#FF0000;fill:#FF0000;}
*[layerid="2"] {stroke:#0000FF;fill:#0000FF;}
*[layerid="3"] {stroke:#FFCC00;fill:#FFCC00;}
*[layerid="4"] {stroke:#66CC33;fill:#66CC33;}
*[layerid="5"] {stroke:#808080;fill:#808080;}
*[layerid="6"] {stroke:#800000;fill:#800000;}
*[layerid="7"] {stroke:#800080;fill:#800080;stroke-opacity:0.7;fill-opacity:0.7;}
*[layerid="8"] {stroke:#AA00FF;fill:#AA00FF;stroke-opacity:0.7;fill-opacity:0.7;}
*[layerid="9"] {stroke:#6464FF;fill:#6464FF;}
*[layerid="10"] {stroke:#FF00FF;fill:#FF00FF;}
*[layerid="11"] {stroke:#C0C0C0;fill:#C0C0C0;}
*[layerid="12"] {stroke:#FFFFFF;fill:#FFFFFF;}
*[layerid="13"] {stroke:#33CC99;fill:#33CC99;}
*[layerid="14"] {stroke:#5555FF;fill:#5555FF;}
*[layerid="15"] {stroke:#F022F0;fill:#F022F0;}
*[layerid="19"] {stroke:#66CCFF;fill:#66CCFF;}
*[layerid="21"] {stroke:#999966;fill:#999966;}
*[layerid="22"] {stroke:#008000;fill:#008000;}
*[layerid="23"] {stroke:#00FF00;fill:#00FF00;}
*[layerid="24"] {stroke:#BC8E00;fill:#BC8E00;}
*[layerid="25"] {stroke:#70DBFA;fill:#70DBFA;}
*[layerid="26"] {stroke:#00CC66;fill:#00CC66;}
*[layerid="27"] {stroke:#9966FF;fill:#9966FF;}
*[layerid="28"] {stroke:#800080;fill:#800080;}
*[layerid="29"] {stroke:#008080;fill:#008080;}
*[layerid="30"] {stroke:#15935F;fill:#15935F;}
*[layerid="31"] {stroke:#000080;fill:#000080;}
*[layerid="32"] {stroke:#00B400;fill:#00B400;}
*[layerid="33"] {stroke:#2E4756;fill:#2E4756;}
*[layerid="34"] {stroke:#99842F;fill:#99842F;}
*[layerid="35"] {stroke:#FFFFAA;fill:#FFFFAA;}
*[layerid="36"] {stroke:#99842F;fill:#99842F;}
*[layerid="37"] {stroke:#2E4756;fill:#2E4756;}
*[layerid="38"] {stroke:#3535FF;fill:#3535FF;}
*[layerid="39"] {stroke:#8000BC;fill:#8000BC;}
*[layerid="40"] {stroke:#43AE5F;fill:#43AE5F;}
*[layerid="41"] {stroke:#C3ECCE;fill:#C3ECCE;}
*[layerid="42"] {stroke:#728978;fill:#728978;}
*[layerid="43"] {stroke:#39503F;fill:#39503F;}
*[layerid="44"] {stroke:#0C715D;fill:#0C715D;}
*[layerid="45"] {stroke:#5A8A80;fill:#5A8A80;}
*[layerid="46"] {stroke:#2B937E;fill:#2B937E;}
*[layerid="47"] {stroke:#23999D;fill:#23999D;}
*[layerid="48"] {stroke:#45B4E3;fill:#45B4E3;}
*[layerid="49"] {stroke:#215DA1;fill:#215DA1;}
*[layerid="50"] {stroke:#4564D7;fill:#4564D7;}
*[layerid="51"] {stroke:#6969E9;fill:#6969E9;}
*[layerid="52"] {stroke:#9069E9;fill:#9069E9;}
*[layerid="99"] {stroke:#00CCCC;fill:#00CCCC;stroke-opacity:0.6;fill-opacity:0.6;}
*[layerid="100"] {stroke:#CC9999;fill:#CC9999;}
*[layerid="101"] {stroke:#66FFCC;fill:#66FFCC;}
*[layerid="Hole"] {stroke:#222222;fill:#222222;}
*[layerid="DRCError"] {stroke:#FAD609;fill:#FAD609;}
*[fill="none"] {fill: none;}
*[stroke="none"] {stroke: none;}
path, polyline, polygon, line {stroke-linecap:round;}
g[c_partid="part_pad"][layerid="1"] ellipse:not([c_etype="pad_outer"]) {fill:#FF0000;}
g[c_partid="part_pad"][layerid="1"] polygon:not([c_etype="pad_outer"]) {fill:#FF0000;}
g[c_partid="part_pad"][layerid="1"] polyline:not([c_etype="pad_outer"]) {stroke:#FF0000;}
g[c_partid="part_pad"][layerid="2"] ellipse:not([c_etype="pad_outer"]) {fill:#0000FF;}
g[c_partid="part_pad"][layerid="2"] polygon:not([c_etype="pad_outer"]) {fill:#0000FF;}
g[c_partid="part_pad"][layerid="2"] polyline:not([c_etype="pad_outer"]) {stroke:#0000FF;}
g[c_partid="part_pad"][layerid="11"] ellipse:not([c_etype="pad_outer"]) {fill:#C0C0C0;}
g[c_partid="part_pad"][layerid="11"] polygon:not([c_etype="pad_outer"]) {fill:#C0C0C0;}
g[c_partid="part_pad"][layerid="11"] polyline:not([c_etype="pad_outer"]) {stroke:#C0C0C0;}
g[c_partid="part_pad"][layerid="11"] circle {fill:#222222;}
g[c_partid="part_pad"][layerid="11"] > polyline:nth-of-type(2) {stroke:#222222;}
g[c_partid="part_pad"][layerid="11"][c_shape="ELLIPSE"]  polyline:nth-last-of-type(1) {stroke:#222222;}
g[c_partid="part_pad"][layerid="11"][c_shape="RECT"]  polyline:nth-last-of-type(1) {stroke:#222222;}
g[c_partid="part_pad"][layerid="11"][c_shape="POLYGON"]  polyline:nth-last-of-type(1) {stroke:#222222;}
g[c_partid="part_via"] > * + circle, #gCurParts g[c_partid="part_via"] > * + circle {fill:#222222;}
g[c_partid="part_pad"] > polygon[c_etype="pad_outer"], #gCurParts g[c_partid="part_pad"] > polygon[c_etype="pad_outer"] {stroke-linejoin: round;stroke-miterlimit: 100;}
g[c_partid="part_hole"] > circle {fill: #222222;}path, polyline, polygon {stroke-linejoin:round;}
rect, circle, ellipse, polyline, line, polygon, path {shape-rendering:crispEdges;}
</style>
<rect x="4031.7" y="3036.9" width="301.4" height="216.9" fill="#FFFFFF" stroke="none"/><polyline points="4172.0001 3164 4158.2511 3177.749 4156.5001 3177.749" stroke-width="1"  stroke-linecap="round" fill="none" layerid="2" net="Q1_1" id="gge1053" locked="0" /><polyline points="4156.5001 3182 4156.5001 3177.749" stroke-width="1"  stroke-linecap="round" fill="none" layerid="2" net="Q1_1" id="gge1050" locked="0" /><polyline points="4096 3205 4096 3165 4095.5 3164.5" stroke-width="1"  stroke-linecap="round" fill="none" layerid="2" net="R1_1" id="gge1029" locked="0" /><polyline points="4166.5001 3204.5 4166.5001 3182" stroke-width="1"  stroke-linecap="round" fill="none" layerid="2" net="GND" id="gge1026" locked="0" /><polyline points="4106 3186.5 4105.5 3186 4105.5 3164.5" stroke-width="1"  stroke-linecap="round" fill="none" layerid="1" net="R5_1" id="gge1032" locked="0" /><polyline points="4205.0001 3214.5 4222.5 3214.5 4222.5001 3205.422 4222.5001 3204.5" stroke-width="1"  stroke-linecap="round" fill="none" layerid="1" net="Q6_2" id="gge1071" locked="0" /><polyline points="4217.5001 3204.5 4217.5001 3185 4218.0001 3184.5" stroke-width="1"  stroke-linecap="round" fill="none" layerid="1" net="+20V" id="gge1065" locked="0" /><polyline points="4202.0001 3164 4213.0001 3175 4213.0001 3184.5" stroke-width="1"  stroke-linecap="round" fill="none" layerid="1" net="Q5_2" id="gge1068" locked="0" /><polyline points="4085.5001 3164.5 4089.7011 3164.5" stroke-width="1"  stroke-linecap="round" fill="none" layerid="1" net="GND" id="gge1020" locked="0" /><polyline points="4166.5 3182 4166.5 3181.55 4141.45 3156.5 4086 3156.5 4086 3164.5 4089.7 3164.5" stroke-width="1"  stroke-linecap="round" fill="none" layerid="1" net="GND" id="gge1023" locked="0" /><polyline points="4065.5 3189.5 4058.5 3189.5 4056 3192 4056 3224.5 4227.5 3224.5 4227.5 3204.5" stroke-width="1"  stroke-linecap="round" fill="none" layerid="1" net="Q6_1" id="gge1086" locked="0" /><polyline points="4065.5 3209.5 4082.5 3192.5 4204.25 3192.5 4208 3188.75" stroke-width="1"  stroke-linecap="round" fill="none" layerid="1" net="Q5_1" id="gge1038" locked="0" /><polyline points="4175.0001 3214.5 4162.2491 3214.5 4156.5001 3208.751" stroke-width="1"  stroke-linecap="round" fill="none" layerid="1" net="Q2_1" id="gge1062" locked="0" /><polyline points="4156.5001 3204.5 4156.5001 3208.751" stroke-width="1"  stroke-linecap="round" fill="none" layerid="1" net="Q2_1" id="gge1059" locked="0" /><polyline points="4126 3205 4130.7561 3200.2439 4159.3779 3200.2439 4161.5 3202.366 4161.5 3204.5" stroke-width="1"  stroke-linecap="round" fill="none" layerid="1" net="Q2_2" id="gge1056" locked="0" /><polyline points="4136.0001 3186.5 4159.3781 3186.5 4161.5001 3184.378 4161.5001 3182" stroke-width="1"  stroke-linecap="round" fill="none" layerid="1" net="Q1_2" id="gge1047" locked="0" /><polyline points="4208.0001 3184.5 4208.0001 3188.751" stroke-width="1"  stroke-linecap="round" fill="none" layerid="1" net="Q5_1" id="gge1035" locked="0" /><polyline points="4065.5001 3169.5 4076.2991 3169.5 4081.2991 3164.5" stroke-width="1"  stroke-linecap="round" fill="none" layerid="1" net="GND" id="gge1017" locked="0" /><polyline points="4085.5001 3164.5 4081.2991 3164.5" stroke-width="1"  stroke-linecap="round" fill="none" layerid="1" net="GND" id="gge1014" locked="0" /><g c_partid="part_pad" c_etype="pinpart" c_origin="4085.5,3164.5" layerid="11" number="1" net="GND" plated ="Y"  id="gge45" locked="0" c_rotation="0" c_width="6.2" c_height="6.2" title="GND" c_shape="RECT" pasteexpansion="0" solderexpansion="0.2"><polygon  c_etype="pad_shell" points="4082.4 3161.4 4088.6 3161.4 4088.6 3167.6 4082.4 3167.6" layerid="11" stroke-width="0" /><circle c_etype="pad_hole" cx="4085.5" cy="3164.5" r="1.75" layerid="11" stroke-width="0"/></g><g c_partid="part_pad" c_etype="pinpart" c_origin="4095.5,3164.5" layerid="11" number="2" net="R1_1" plated ="Y"  id="gge60" locked="0" c_rotation="0" c_width="6.2" c_height="6.2" title="R1_1" c_shape="ELLIPSE" pasteexpansion="0" solderexpansion="0.2"><ellipse c_etype="pad_shell" cx="4095.5" cy="3164.5" rx="3.1" ry="3.1" layerid="11" stroke-width="0"/><circle c_etype="pad_hole" cx="4095.5" cy="3164.5" r="1.75" layerid="11" stroke-width="0"/></g><g c_partid="part_pad" c_etype="pinpart" c_origin="4105.5,3164.5" layerid="11" number="3" net="R5_1" plated ="Y"  id="gge75" locked="0" c_rotation="0" c_width="6.2" c_height="6.2" title="R5_1" c_shape="ELLIPSE" pasteexpansion="0" solderexpansion="0.2"><ellipse c_etype="pad_shell" cx="4105.5" cy="3164.5" rx="3.1" ry="3.1" layerid="11" stroke-width="0"/><circle c_etype="pad_hole" cx="4105.5" cy="3164.5" r="1.8" layerid="11" stroke-width="0"/></g><g c_partid="part_pad" c_etype="pinpart" c_origin="4166.5,3182" layerid="11" number="3" net="GND" plated ="Y"  id="gge261" locked="0" c_rotation="0" c_width="3.5433" c_height="6.2992" title="GND" c_shape="OVAL" pasteexpansion="0" solderexpansion="0.2"><polyline  c_etype="pad_shell" points="4166.5 3180.6221 4166.5 3183.378" layerid="11" stroke-width="3.5433" /><circle c_etype="pad_hole" cx="4166.5" cy="3182" r="1.378" layerid="11" stroke-width="0"/></g><g c_partid="part_pad" c_etype="pinpart" c_origin="4161.5,3182" layerid="11" number="2" net="Q1_2" plated ="Y"  id="gge276" locked="0" c_rotation="0" c_width="3.5433" c_height="6.2992" title="Q1_2" c_shape="OVAL" pasteexpansion="0" solderexpansion="0.2"><polyline  c_etype="pad_shell" points="4161.5 3180.6221 4161.5 3183.378" layerid="11" stroke-width="3.5433" /><circle c_etype="pad_hole" cx="4161.5" cy="3182" r="1.378" layerid="11" stroke-width="0"/></g><g c_partid="part_pad" c_etype="pinpart" c_origin="4156.5,3182" layerid="11" number="1" net="Q1_1" plated ="Y"  id="gge291" locked="0" c_rotation="0" c_width="3.5433" c_height="6.2992" title="Q1_1" c_shape="RECT" pasteexpansion="0" solderexpansion="0.2"><polygon  c_etype="pad_shell" points="4154.7284 3178.8504 4158.2717 3178.8504 4158.2717 3185.1496 4154.7284 3185.1496" layerid="11" stroke-width="0" /><circle c_etype="pad_hole" cx="4156.5" cy="3182" r="1.378" layerid="11" stroke-width="0"/></g><g c_partid="part_pad" c_etype="pinpart" c_origin="4166.5,3204.5" layerid="11" number="3" net="GND" plated ="Y"  id="gge357" locked="0" c_rotation="0" c_width="3.5433" c_height="6.2992" title="GND" c_shape="OVAL" pasteexpansion="0" solderexpansion="0.2"><polyline  c_etype="pad_shell" points="4166.5 3203.1221 4166.5 3205.878" layerid="11" stroke-width="3.5433" /><circle c_etype="pad_hole" cx="4166.5" cy="3204.5" r="1.378" layerid="11" stroke-width="0"/></g><g c_partid="part_pad" c_etype="pinpart" c_origin="4161.5,3204.5" layerid="11" number="2" net="Q2_2" plated ="Y"  id="gge372" locked="0" c_rotation="0" c_width="3.5433" c_height="6.2992" title="Q2_2" c_shape="OVAL" pasteexpansion="0" solderexpansion="0.2"><polyline  c_etype="pad_shell" points="4161.5 3203.1221 4161.5 3205.878" layerid="11" stroke-width="3.5433" /><circle c_etype="pad_hole" cx="4161.5" cy="3204.5" r="1.378" layerid="11" stroke-width="0"/></g><g c_partid="part_pad" c_etype="pinpart" c_origin="4156.5,3204.5" layerid="11" number="1" net="Q2_1" plated ="Y"  id="gge387" locked="0" c_rotation="0" c_width="3.5433" c_height="6.2992" title="Q2_1" c_shape="RECT" pasteexpansion="0" solderexpansion="0.2"><polygon  c_etype="pad_shell" points="4154.7284 3201.3504 4158.2717 3201.3504 4158.2717 3207.6496 4154.7284 3207.6496" layerid="11" stroke-width="0" /><circle c_etype="pad_hole" cx="4156.5" cy="3204.5" r="1.378" layerid="11" stroke-width="0"/></g><g c_partid="part_pad" c_etype="pinpart" c_origin="4218,3184.5" layerid="11" number="3" net="+20V" plated ="Y"  id="gge453" locked="0" c_rotation="0" c_width="3.5433" c_height="6.2992" title="+20V" c_shape="OVAL" pasteexpansion="0" solderexpansion="0.2"><polyline  c_etype="pad_shell" points="4218 3183.1221 4218 3185.878" layerid="11" stroke-width="3.5433" /><circle c_etype="pad_hole" cx="4218" cy="3184.5" r="1.378" layerid="11" stroke-width="0"/></g><g c_partid="part_pad" c_etype="pinpart" c_origin="4213,3184.5" layerid="11" number="2" net="Q5_2" plated ="Y"  id="gge468" locked="0" c_rotation="0" c_width="3.5433" c_height="6.2992" title="Q5_2" c_shape="OVAL" pasteexpansion="0" solderexpansion="0.2"><polyline  c_etype="pad_shell" points="4213 3183.1221 4213 3185.878" layerid="11" stroke-width="3.5433" /><circle c_etype="pad_hole" cx="4213" cy="3184.5" r="1.378" layerid="11" stroke-width="0"/></g><g c_partid="part_pad" c_etype="pinpart" c_origin="4208,3184.5" layerid="11" number="1" net="Q5_1" plated ="Y"  id="gge483" locked="0" c_rotation="0" c_width="3.5433" c_height="6.2992" title="Q5_1" c_shape="RECT" pasteexpansion="0" solderexpansion="0.2"><polygon  c_etype="pad_shell" points="4206.2284 3181.3504 4209.7717 3181.3504 4209.7717 3187.6496 4206.2284 3187.6496" layerid="11" stroke-width="0" /><circle c_etype="pad_hole" cx="4208" cy="3184.5" r="1.378" layerid="11" stroke-width="0"/></g><g c_partid="part_pad" c_etype="pinpart" c_origin="4217.5,3204.5" layerid="11" number="3" net="+20V" plated ="Y"  id="gge549" locked="0" c_rotation="180" c_width="3.5433" c_height="6.2992" title="+20V" c_shape="OVAL" pasteexpansion="0" solderexpansion="0.2"><polyline  c_etype="pad_shell" points="4217.5 3205.8779 4217.5 3203.122" layerid="11" stroke-width="3.5433" /><circle c_etype="pad_hole" cx="4217.5" cy="3204.5" r="1.378" layerid="11" stroke-width="0"/></g><g c_partid="part_pad" c_etype="pinpart" c_origin="4222.5,3204.5" layerid="11" number="2" net="Q6_2" plated ="Y"  id="gge564" locked="0" c_rotation="180" c_width="3.5433" c_height="6.2992" title="Q6_2" c_shape="OVAL" pasteexpansion="0" solderexpansion="0.2"><polyline  c_etype="pad_shell" points="4222.5 3205.8779 4222.5 3203.122" layerid="11" stroke-width="3.5433" /><circle c_etype="pad_hole" cx="4222.5" cy="3204.5" r="1.378" layerid="11" stroke-width="0"/></g><g c_partid="part_pad" c_etype="pinpart" c_origin="4227.5,3204.5" layerid="11" number="1" net="Q6_1" plated ="Y"  id="gge579" locked="0" c_rotation="180" c_width="3.5433" c_height="6.2992" title="Q6_1" c_shape="RECT" pasteexpansion="0" solderexpansion="0.2"><polygon  c_etype="pad_shell" points="4229.2716 3207.6496 4225.7283 3207.6496 4225.7283 3201.3504 4229.2716 3201.3504" layerid="11" stroke-width="0" /><circle c_etype="pad_hole" cx="4227.5" cy="3204.5" r="1.378" layerid="11" stroke-width="0"/></g><g c_partid="part_pad" c_etype="pinpart" c_origin="4096,3205" layerid="11" number="1" net="R1_1" plated ="Y"  id="gge654" locked="0" c_rotation="0" c_width="7.4" c_height="7.4" title="R1_1" c_shape="ELLIPSE" pasteexpansion="0" solderexpansion="0.2"><ellipse c_etype="pad_shell" cx="4096" cy="3205" rx="3.7" ry="3.7" layerid="11" stroke-width="0"/><circle c_etype="pad_hole" cx="4096" cy="3205" r="1.77" layerid="11" stroke-width="0"/></g><g c_partid="part_pad" c_etype="pinpart" c_origin="4126,3205" layerid="11" number="2" net="Q2_2" plated ="Y"  id="gge669" locked="0" c_rotation="0" c_width="7.4" c_height="7.4" title="Q2_2" c_shape="ELLIPSE" pasteexpansion="0" solderexpansion="0.2"><ellipse c_etype="pad_shell" cx="4126" cy="3205" rx="3.7" ry="3.7" layerid="11" stroke-width="0"/><circle c_etype="pad_hole" cx="4126" cy="3205" r="1.77" layerid="11" stroke-width="0"/></g><g c_partid="part_pad" c_etype="pinpart" c_origin="4172,3164" layerid="11" number="1" net="Q1_1" plated ="Y"  id="gge744" locked="0" c_rotation="0" c_width="7.4" c_height="7.4" title="Q1_1" c_shape="ELLIPSE" pasteexpansion="0" solderexpansion="0.2"><ellipse c_etype="pad_shell" cx="4172" cy="3164" rx="3.7" ry="3.7" layerid="11" stroke-width="0"/><circle c_etype="pad_hole" cx="4172" cy="3164" r="1.77" layerid="11" stroke-width="0"/></g><g c_partid="part_pad" c_etype="pinpart" c_origin="4202,3164" layerid="11" number="2" net="Q5_2" plated ="Y"  id="gge759" locked="0" c_rotation="0" c_width="7.4" c_height="7.4" title="Q5_2" c_shape="ELLIPSE" pasteexpansion="0" solderexpansion="0.2"><ellipse c_etype="pad_shell" cx="4202" cy="3164" rx="3.7" ry="3.7" layerid="11" stroke-width="0"/><circle c_etype="pad_hole" cx="4202" cy="3164" r="1.77" layerid="11" stroke-width="0"/></g><g c_partid="part_pad" c_etype="pinpart" c_origin="4175,3214.5" layerid="11" number="1" net="Q2_1" plated ="Y"  id="gge834" locked="0" c_rotation="0" c_width="7.4" c_height="7.4" title="Q2_1" c_shape="ELLIPSE" pasteexpansion="0" solderexpansion="0.2"><ellipse c_etype="pad_shell" cx="4175" cy="3214.5" rx="3.7" ry="3.7" layerid="11" stroke-width="0"/><circle c_etype="pad_hole" cx="4175" cy="3214.5" r="1.77" layerid="11" stroke-width="0"/></g><g c_partid="part_pad" c_etype="pinpart" c_origin="4205,3214.5" layerid="11" number="2" net="Q6_2" plated ="Y"  id="gge849" locked="0" c_rotation="0" c_width="7.4" c_height="7.4" title="Q6_2" c_shape="ELLIPSE" pasteexpansion="0" solderexpansion="0.2"><ellipse c_etype="pad_shell" cx="4205" cy="3214.5" rx="3.7" ry="3.7" layerid="11" stroke-width="0"/><circle c_etype="pad_hole" cx="4205" cy="3214.5" r="1.77" layerid="11" stroke-width="0"/></g><g c_partid="part_pad" c_etype="pinpart" c_origin="4106,3186.5" layerid="11" number="1" net="R5_1" plated ="Y"  id="gge924" locked="0" c_rotation="0" c_width="7.4" c_height="7.4" title="R5_1" c_shape="ELLIPSE" pasteexpansion="0" solderexpansion="0.2"><ellipse c_etype="pad_shell" cx="4106" cy="3186.5" rx="3.7" ry="3.7" layerid="11" stroke-width="0"/><circle c_etype="pad_hole" cx="4106" cy="3186.5" r="1.77" layerid="11" stroke-width="0"/></g><g c_partid="part_pad" c_etype="pinpart" c_origin="4136,3186.5" layerid="11" number="2" net="Q1_2" plated ="Y"  id="gge939" locked="0" c_rotation="0" c_width="7.4" c_height="7.4" title="Q1_2" c_shape="ELLIPSE" pasteexpansion="0" solderexpansion="0.2"><ellipse c_etype="pad_shell" cx="4136" cy="3186.5" rx="3.7" ry="3.7" layerid="11" stroke-width="0"/><circle c_etype="pad_hole" cx="4136" cy="3186.5" r="1.77" layerid="11" stroke-width="0"/></g><g c_partid="part_pad" c_etype="pinpart" c_origin="4065.5001,3169.5003" layerid="11" number="3" net="GND" plated ="Y"  id="gge165" locked="0" c_rotation="90" c_width="7.874" c_height="7.874" title="GND" c_shape="ELLIPSE" pasteexpansion="0" solderexpansion="0.2"><ellipse c_etype="pad_shell" cx="4065.5001" cy="3169.5003" rx="3.937" ry="3.937" layerid="11" stroke-width="0"/><circle c_etype="pad_hole" cx="4065.5002" cy="3169.5006" r="2.5591" layerid="11" stroke-width="0"/></g><g c_partid="part_pad" c_etype="pinpart" c_origin="4065.5001,3209.5003" layerid="11" number="1" net="Q5_1" plated ="Y"  id="gge180" locked="0" c_rotation="90" c_width="7.874" c_height="7.874" title="Q5_1" c_shape="ELLIPSE" pasteexpansion="0" solderexpansion="0.2"><ellipse c_etype="pad_shell" cx="4065.5001" cy="3209.5003" rx="3.937" ry="3.937" layerid="11" stroke-width="0"/><circle c_etype="pad_hole" cx="4065.5002" cy="3209.5007" r="2.5591" layerid="11" stroke-width="0"/></g><g c_partid="part_pad" c_etype="pinpart" c_origin="4065.5001,3189.5003" layerid="11" number="2" net="Q6_1" plated ="Y"  id="gge195" locked="0" c_rotation="90" c_width="7.874" c_height="7.874" title="Q6_1" c_shape="ELLIPSE" pasteexpansion="0" solderexpansion="0.2"><ellipse c_etype="pad_shell" cx="4065.5001" cy="3189.5003" rx="3.937" ry="3.937" layerid="11" stroke-width="0"/><circle c_etype="pad_hole" cx="4065.5002" cy="3189.5006" r="2.5591" layerid="11" stroke-width="0"/></g><polyline points="4100.5 3159.5 4110.5 3159.5 4110.5 3169.4 4080.5 3169.4 4080.5 3159.5 4100.5 3159.5" stroke-width="0.8"  stroke-linecap="round" fill="none" layerid="3" net="" id="gge36" locked="0" /><polyline points="4169.2949 3187.905 4153.7051 3187.905" stroke-width="1"  stroke-linecap="round" fill="none" layerid="3" net="" id="gge240" locked="0" /><polyline points="4169.2949 3210.405 4153.7051 3210.405" stroke-width="1"  stroke-linecap="round" fill="none" layerid="3" net="" id="gge336" locked="0" /><polyline points="4220.7949 3190.405 4205.2051 3190.405" stroke-width="1"  stroke-linecap="round" fill="none" layerid="3" net="" id="gge432" locked="0" /><polyline points="4214.7051 3198.595 4230.2949 3198.595" stroke-width="1"  stroke-linecap="round" fill="none" layerid="3" net="" id="gge528" locked="0" /><polyline points="4101 3205 4100 3205" stroke-width="1"  stroke-linecap="round" fill="none" layerid="3" net="" id="gge612" locked="0" /><polyline points="4121 3205 4122 3205" stroke-width="1"  stroke-linecap="round" fill="none" layerid="3" net="" id="gge615" locked="0" /><polyline points="4101 3205 4101 3202" stroke-width="1"  stroke-linecap="round" fill="none" layerid="3" net="" id="gge618" locked="0" /><polyline points="4101 3208 4101 3205" stroke-width="1"  stroke-linecap="round" fill="none" layerid="3" net="" id="gge621" locked="0" /><polyline points="4121 3208 4101 3208" stroke-width="1"  stroke-linecap="round" fill="none" layerid="3" net="" id="gge624" locked="0" /><polyline points="4121 3205 4121 3208" stroke-width="1"  stroke-linecap="round" fill="none" layerid="3" net="" id="gge627" locked="0" /><polyline points="4121 3202 4121 3205" stroke-width="1"  stroke-linecap="round" fill="none" layerid="3" net="" id="gge630" locked="0" /><polyline points="4101 3202 4121 3202" stroke-width="1"  stroke-linecap="round" fill="none" layerid="3" net="" id="gge633" locked="0" /><polyline points="4177 3164 4176 3164" stroke-width="1"  stroke-linecap="round" fill="none" layerid="3" net="" id="gge702" locked="0" /><polyline points="4197 3164 4198 3164" stroke-width="1"  stroke-linecap="round" fill="none" layerid="3" net="" id="gge705" locked="0" /><polyline points="4177 3164 4177 3161" stroke-width="1"  stroke-linecap="round" fill="none" layerid="3" net="" id="gge708" locked="0" /><polyline points="4177 3167 4177 3164" stroke-width="1"  stroke-linecap="round" fill="none" layerid="3" net="" id="gge711" locked="0" /><polyline points="4197 3167 4177 3167" stroke-width="1"  stroke-linecap="round" fill="none" layerid="3" net="" id="gge714" locked="0" /><polyline points="4197 3164 4197 3167" stroke-width="1"  stroke-linecap="round" fill="none" layerid="3" net="" id="gge717" locked="0" /><polyline points="4197 3161 4197 3164" stroke-width="1"  stroke-linecap="round" fill="none" layerid="3" net="" id="gge720" locked="0" /><polyline points="4177 3161 4197 3161" stroke-width="1"  stroke-linecap="round" fill="none" layerid="3" net="" id="gge723" locked="0" /><polyline points="4180 3214.5 4179 3214.5" stroke-width="1"  stroke-linecap="round" fill="none" layerid="3" net="" id="gge792" locked="0" /><polyline points="4200 3214.5 4201 3214.5" stroke-width="1"  stroke-linecap="round" fill="none" layerid="3" net="" id="gge795" locked="0" /><polyline points="4180 3214.5 4180 3211.5" stroke-width="1"  stroke-linecap="round" fill="none" layerid="3" net="" id="gge798" locked="0" /><polyline points="4180 3217.5 4180 3214.5" stroke-width="1"  stroke-linecap="round" fill="none" layerid="3" net="" id="gge801" locked="0" /><polyline points="4200 3217.5 4180 3217.5" stroke-width="1"  stroke-linecap="round" fill="none" layerid="3" net="" id="gge804" locked="0" /><polyline points="4200 3214.5 4200 3217.5" stroke-width="1"  stroke-linecap="round" fill="none" layerid="3" net="" id="gge807" locked="0" /><polyline points="4200 3211.5 4200 3214.5" stroke-width="1"  stroke-linecap="round" fill="none" layerid="3" net="" id="gge810" locked="0" /><polyline points="4180 3211.5 4200 3211.5" stroke-width="1"  stroke-linecap="round" fill="none" layerid="3" net="" id="gge813" locked="0" /><polyline points="4111 3186.5 4110 3186.5" stroke-width="1"  stroke-linecap="round" fill="none" layerid="3" net="" id="gge882" locked="0" /><polyline points="4131 3186.5 4132 3186.5" stroke-width="1"  stroke-linecap="round" fill="none" layerid="3" net="" id="gge885" locked="0" /><polyline points="4111 3186.5 4111 3183.5" stroke-width="1"  stroke-linecap="round" fill="none" layerid="3" net="" id="gge888" locked="0" /><polyline points="4111 3189.5 4111 3186.5" stroke-width="1"  stroke-linecap="round" fill="none" layerid="3" net="" id="gge891" locked="0" /><polyline points="4131 3189.5 4111 3189.5" stroke-width="1"  stroke-linecap="round" fill="none" layerid="3" net="" id="gge894" locked="0" /><polyline points="4131 3186.5 4131 3189.5" stroke-width="1"  stroke-linecap="round" fill="none" layerid="3" net="" id="gge897" locked="0" /><polyline points="4131 3183.5 4131 3186.5" stroke-width="1"  stroke-linecap="round" fill="none" layerid="3" net="" id="gge900" locked="0" /><polyline points="4111 3183.5 4131 3183.5" stroke-width="1"  stroke-linecap="round" fill="none" layerid="3" net="" id="gge903" locked="0" /><polyline points="4077.2716 3206.468 4073.8919 3206.468 4072.4717 3207.888 4072.4717 3211.158" stroke-width="1"  stroke-linecap="round" fill="none" layerid="3" net="" id="gge120" locked="0" /><polyline points="4077.2716 3212.5878 4073.8917 3212.5878 4072.4717 3211.1678 4072.4717 3207.8978" stroke-width="1"  stroke-linecap="round" fill="none" layerid="3" net="" id="gge123" locked="0" /><polyline points="4077.2718 3186.4681 4073.8921 3186.4681 4072.4719 3187.888 4072.4719 3191.158" stroke-width="1"  stroke-linecap="round" fill="none" layerid="3" net="" id="gge126" locked="0" /><polyline points="4077.2718 3192.5877 4073.8919 3192.5877 4072.4719 3191.1679 4072.4719 3187.8979" stroke-width="1"  stroke-linecap="round" fill="none" layerid="3" net="" id="gge129" locked="0" /><polyline points="4077.2716 3172.5883 4073.8917 3172.5883 4072.4717 3171.1683 4072.4717 3167.8983" stroke-width="1"  stroke-linecap="round" fill="none" layerid="3" net="" id="gge132" locked="0" /><polyline points="4077.2716 3166.4685 4073.8919 3166.4685 4072.4717 3167.8885 4072.4717 3171.1585" stroke-width="1"  stroke-linecap="round" fill="none" layerid="3" net="" id="gge135" locked="0" /><polyline points="4074.2322 3219.5001 4074.2322 3159.5" stroke-width="1"  stroke-linecap="round" fill="none" layerid="3" net="" id="gge138" locked="0" /><polyline points="4050.0422 3219.5 4049.3586 3221.0747 4053.2954 3221.0747 4052.5203 3219.5" stroke-width="1"  stroke-linecap="round" fill="none" layerid="3" net="" id="gge141" locked="0" /><polyline points="4047.39 3219.5001 4047.39 3159.5" stroke-width="1"  stroke-linecap="round" fill="none" layerid="3" net="" id="gge144" locked="0" /><polyline points="4047.39 3219.5 4077.3112 3219.5" stroke-width="1"  stroke-linecap="round" fill="none" layerid="3" net="" id="gge147" locked="0" /><polyline points="4047.39 3159.5 4077.3112 3159.5" stroke-width="1"  stroke-linecap="round" fill="none" layerid="3" net="" id="gge150" locked="0" /><polyline points="4077.3112 3219.5001 4077.3112 3159.5" stroke-width="1"  stroke-linecap="round" fill="none" layerid="3" net="" id="gge153" locked="0" /><polyline points="4056.0482 3219.5001 4056.0482 3159.5" stroke-width="1"  stroke-linecap="round" fill="none" layerid="3" net="" id="gge156" locked="0" /><g c_partid="part_pcbtext" c_etype="" c_origin="4094.5,3151.5" c_rotation="0" c_mirror="" id="gge9" locked="0" layerid="3" c_shapetype="group" display="none"><path c_fontsize="4.5" c_fontfamily="" c_text="HDR-F-2.54_1x3" d="M 4094.5 3146.96 L 4094.5 3151.25 M 4097.36 3146.96 L 4097.36 3151.25 M 4094.5 3149 L 4097.36 3149 M 4098.71 3146.96 L 4098.71 3151.25 M 4098.71 3146.96 L 4100.15 3146.96 L 4100.76 3147.16 L 4101.17 3147.57 L 4101.37 3147.98 L 4101.58 3148.6 L 4101.58 3149.62 L 4101.37 3150.23 L 4101.17 3150.64 L 4100.76 3151.05 L 4100.15 3151.25 L 4098.71 3151.25 M 4102.93 3146.96 L 4102.93 3151.25 M 4102.93 3146.96 L 4104.77 3146.96 L 4105.38 3147.16 L 4105.59 3147.37 L 4105.79 3147.78 L 4105.79 3148.19 L 4105.59 3148.6 L 4105.38 3148.8 L 4104.77 3149 L 4102.93 3149 M 4104.36 3149 L 4105.79 3151.25 M 4107.14 3149.41 L 4110.82 3149.41 M 4112.17 3146.96 L 4112.17 3151.25 M 4112.17 3146.96 L 4114.83 3146.96 M 4112.17 3149 L 4113.81 3149 M 4116.18 3149.41 L 4119.86 3149.41 M 4121.42 3147.98 L 4121.42 3147.78 L 4121.62 3147.37 L 4121.83 3147.16 L 4122.24 3146.96 L 4123.05 3146.96 L 4123.46 3147.16 L 4123.67 3147.37 L 4123.87 3147.78 L 4123.87 3148.19 L 4123.67 3148.6 L 4123.26 3149.21 L 4121.21 3151.25 L 4124.08 3151.25 M 4125.63 3150.23 L 4125.43 3150.44 L 4125.63 3150.64 L 4125.84 3150.44 L 4125.63 3150.23 M 4129.64 3146.96 L 4127.6 3146.96 L 4127.39 3148.8 L 4127.6 3148.6 L 4128.21 3148.39 L 4128.82 3148.39 L 4129.44 3148.6 L 4129.85 3149 L 4130.05 3149.62 L 4130.05 3150.03 L 4129.85 3150.64 L 4129.44 3151.05 L 4128.82 3151.25 L 4128.21 3151.25 L 4127.6 3151.05 L 4127.39 3150.85 L 4127.19 3150.44 M 4133.45 3146.96 L 4131.4 3149.82 L 4134.47 3149.82 M 4133.45 3146.96 L 4133.45 3151.25 M 4135.82 3152.69 L 4139.5 3152.69 M 4140.85 3147.78 L 4141.26 3147.57 L 4141.87 3146.96 L 4141.87 3151.25 M 4143.22 3148.39 L 4145.47 3151.25 M 4145.47 3148.39 L 4143.22 3151.25 M 4147.23 3146.96 L 4149.48 3146.96 L 4148.25 3148.6 L 4148.87 3148.6 L 4149.28 3148.8 L 4149.48 3149 L 4149.69 3149.62 L 4149.69 3150.03 L 4149.48 3150.64 L 4149.07 3151.05 L 4148.46 3151.25 L 4147.85 3151.25 L 4147.23 3151.05 L 4147.03 3150.85 L 4146.82 3150.44" fill="none"  stroke-width="0.6" c_note="note_name" /></g><g c_partid="part_pcbtext" c_etype="" c_origin="4094.5,3158.5" c_rotation="0" c_mirror="" id="gge15" locked="0" layerid="3" c_shapetype="group" ><path c_fontsize="4.5" c_fontfamily="" c_text="H2" d="M 4094.5 3153.96 L 4094.5 3158.25 M 4097.36 3153.96 L 4097.36 3158.25 M 4094.5 3156 L 4097.36 3156 M 4098.92 3154.98 L 4098.92 3154.78 L 4099.12 3154.37 L 4099.33 3154.16 L 4099.74 3153.96 L 4100.55 3153.96 L 4100.96 3154.16 L 4101.17 3154.37 L 4101.37 3154.78 L 4101.37 3155.19 L 4101.17 3155.6 L 4100.76 3156.21 L 4098.71 3158.25 L 4101.58 3158.25" fill="none"  stroke-width="0.6" c_note="note_pre" /></g><g c_partid="part_pcbtext" c_etype="" c_origin="4160.5,3162.5" c_rotation="0" c_mirror="" id="gge216" locked="0" layerid="3" c_shapetype="group" display="none"><path c_fontsize="4.5" c_fontfamily="" c_text="BC547B_C719806" d="M 4160.5 3157.96 L 4160.5 3162.25 M 4160.5 3157.96 L 4162.34 3157.96 L 4162.95 3158.16 L 4163.16 3158.37 L 4163.36 3158.78 L 4163.36 3159.19 L 4163.16 3159.6 L 4162.95 3159.8 L 4162.34 3160 M 4160.5 3160 L 4162.34 3160 L 4162.95 3160.21 L 4163.16 3160.41 L 4163.36 3160.82 L 4163.36 3161.44 L 4163.16 3161.85 L 4162.95 3162.05 L 4162.34 3162.25 L 4160.5 3162.25 M 4167.78 3158.98 L 4167.58 3158.57 L 4167.17 3158.16 L 4166.76 3157.96 L 4165.94 3157.96 L 4165.53 3158.16 L 4165.12 3158.57 L 4164.92 3158.98 L 4164.71 3159.6 L 4164.71 3160.62 L 4164.92 3161.23 L 4165.12 3161.64 L 4165.53 3162.05 L 4165.94 3162.25 L 4166.76 3162.25 L 4167.17 3162.05 L 4167.58 3161.64 L 4167.78 3161.23 M 4171.59 3157.96 L 4169.54 3157.96 L 4169.34 3159.8 L 4169.54 3159.6 L 4170.15 3159.39 L 4170.77 3159.39 L 4171.38 3159.6 L 4171.79 3160 L 4172 3160.62 L 4172 3161.03 L 4171.79 3161.64 L 4171.38 3162.05 L 4170.77 3162.25 L 4170.15 3162.25 L 4169.54 3162.05 L 4169.34 3161.85 L 4169.13 3161.44 M 4175.39 3157.96 L 4173.35 3160.82 L 4176.41 3160.82 M 4175.39 3157.96 L 4175.39 3162.25 M 4180.63 3157.96 L 4178.58 3162.25 M 4177.76 3157.96 L 4180.63 3157.96 M 4181.98 3157.96 L 4181.98 3162.25 M 4181.98 3157.96 L 4183.82 3157.96 L 4184.43 3158.16 L 4184.64 3158.37 L 4184.84 3158.78 L 4184.84 3159.19 L 4184.64 3159.6 L 4184.43 3159.8 L 4183.82 3160 M 4181.98 3160 L 4183.82 3160 L 4184.43 3160.21 L 4184.64 3160.41 L 4184.84 3160.82 L 4184.84 3161.44 L 4184.64 3161.85 L 4184.43 3162.05 L 4183.82 3162.25 L 4181.98 3162.25 M 4186.19 3163.69 L 4189.87 3163.69 M 4194.29 3158.98 L 4194.09 3158.57 L 4193.68 3158.16 L 4193.27 3157.96 L 4192.45 3157.96 L 4192.04 3158.16 L 4191.63 3158.57 L 4191.43 3158.98 L 4191.22 3159.6 L 4191.22 3160.62 L 4191.43 3161.23 L 4191.63 3161.64 L 4192.04 3162.05 L 4192.45 3162.25 L 4193.27 3162.25 L 4193.68 3162.05 L 4194.09 3161.64 L 4194.29 3161.23 M 4198.5 3157.96 L 4196.46 3162.25 M 4195.64 3157.96 L 4198.5 3157.96 M 4199.85 3158.78 L 4200.26 3158.57 L 4200.88 3157.96 L 4200.88 3162.25 M 4204.89 3159.39 L 4204.68 3160 L 4204.27 3160.41 L 4203.66 3160.62 L 4203.45 3160.62 L 4202.84 3160.41 L 4202.43 3160 L 4202.23 3159.39 L 4202.23 3159.19 L 4202.43 3158.57 L 4202.84 3158.16 L 4203.45 3157.96 L 4203.66 3157.96 L 4204.27 3158.16 L 4204.68 3158.57 L 4204.89 3159.39 L 4204.89 3160.41 L 4204.68 3161.44 L 4204.27 3162.05 L 4203.66 3162.25 L 4203.25 3162.25 L 4202.64 3162.05 L 4202.43 3161.64 M 4207.26 3157.96 L 4206.65 3158.16 L 4206.44 3158.57 L 4206.44 3158.98 L 4206.65 3159.39 L 4207.05 3159.6 L 4207.87 3159.8 L 4208.49 3160 L 4208.9 3160.41 L 4209.1 3160.82 L 4209.1 3161.44 L 4208.9 3161.85 L 4208.69 3162.05 L 4208.08 3162.25 L 4207.26 3162.25 L 4206.65 3162.05 L 4206.44 3161.85 L 4206.24 3161.44 L 4206.24 3160.82 L 4206.44 3160.41 L 4206.85 3160 L 4207.46 3159.8 L 4208.28 3159.6 L 4208.69 3159.39 L 4208.9 3158.98 L 4208.9 3158.57 L 4208.69 3158.16 L 4208.08 3157.96 L 4207.26 3157.96 M 4211.68 3157.96 L 4211.06 3158.16 L 4210.65 3158.78 L 4210.45 3159.8 L 4210.45 3160.41 L 4210.65 3161.44 L 4211.06 3162.05 L 4211.68 3162.25 L 4212.09 3162.25 L 4212.7 3162.05 L 4213.11 3161.44 L 4213.31 3160.41 L 4213.31 3159.8 L 4213.11 3158.78 L 4212.7 3158.16 L 4212.09 3157.96 L 4211.68 3157.96 M 4217.12 3158.57 L 4216.91 3158.16 L 4216.3 3157.96 L 4215.89 3157.96 L 4215.28 3158.16 L 4214.87 3158.78 L 4214.66 3159.8 L 4214.66 3160.82 L 4214.87 3161.64 L 4215.28 3162.05 L 4215.89 3162.25 L 4216.1 3162.25 L 4216.71 3162.05 L 4217.12 3161.64 L 4217.32 3161.03 L 4217.32 3160.82 L 4217.12 3160.21 L 4216.71 3159.8 L 4216.1 3159.6 L 4215.89 3159.6 L 4215.28 3159.8 L 4214.87 3160.21 L 4214.66 3160.82" fill="none"  stroke-width="0.6" c_note="note_name" /></g><g c_partid="part_pcbtext" c_etype="" c_origin="4131,3174" c_rotation="0" c_mirror="0" id="gge222" locked="0" layerid="3" c_shapetype="group" ><path c_fontsize="4.5" c_fontfamily="" c_text="BC337" d="M 4131 3169.46 L 4131 3173.75 M 4131 3169.46 L 4132.84 3169.46 L 4133.45 3169.66 L 4133.66 3169.87 L 4133.86 3170.28 L 4133.86 3170.69 L 4133.66 3171.1 L 4133.45 3171.3 L 4132.84 3171.5 M 4131 3171.5 L 4132.84 3171.5 L 4133.45 3171.71 L 4133.66 3171.91 L 4133.86 3172.32 L 4133.86 3172.94 L 4133.66 3173.35 L 4133.45 3173.55 L 4132.84 3173.75 L 4131 3173.75 M 4138.28 3170.48 L 4138.08 3170.07 L 4137.67 3169.66 L 4137.26 3169.46 L 4136.44 3169.46 L 4136.03 3169.66 L 4135.62 3170.07 L 4135.42 3170.48 L 4135.21 3171.1 L 4135.21 3172.12 L 4135.42 3172.73 L 4135.62 3173.14 L 4136.03 3173.55 L 4136.44 3173.75 L 4137.26 3173.75 L 4137.67 3173.55 L 4138.08 3173.14 L 4138.28 3172.73 M 4140.04 3169.46 L 4142.29 3169.46 L 4141.06 3171.1 L 4141.68 3171.1 L 4142.09 3171.3 L 4142.29 3171.5 L 4142.5 3172.12 L 4142.5 3172.53 L 4142.29 3173.14 L 4141.88 3173.55 L 4141.27 3173.75 L 4140.65 3173.75 L 4140.04 3173.55 L 4139.84 3173.35 L 4139.63 3172.94 M 4144.25 3169.46 L 4146.5 3169.46 L 4145.28 3171.1 L 4145.89 3171.1 L 4146.3 3171.3 L 4146.5 3171.5 L 4146.71 3172.12 L 4146.71 3172.53 L 4146.5 3173.14 L 4146.1 3173.55 L 4145.48 3173.75 L 4144.87 3173.75 L 4144.25 3173.55 L 4144.05 3173.35 L 4143.85 3172.94 M 4150.92 3169.46 L 4148.88 3173.75 M 4148.06 3169.46 L 4150.92 3169.46" fill="none"  stroke-width="0.6" c_note="note_pre" /></g><g c_partid="part_pcbtext" c_etype="" c_origin="4160.5,3185" c_rotation="0" c_mirror="" id="gge312" locked="0" layerid="3" c_shapetype="group" display="none"><path c_fontsize="4.5" c_fontfamily="" c_text="BC547B_C719806" d="M 4160.5 3180.46 L 4160.5 3184.75 M 4160.5 3180.46 L 4162.34 3180.46 L 4162.95 3180.66 L 4163.16 3180.87 L 4163.36 3181.28 L 4163.36 3181.69 L 4163.16 3182.1 L 4162.95 3182.3 L 4162.34 3182.5 M 4160.5 3182.5 L 4162.34 3182.5 L 4162.95 3182.71 L 4163.16 3182.91 L 4163.36 3183.32 L 4163.36 3183.94 L 4163.16 3184.35 L 4162.95 3184.55 L 4162.34 3184.75 L 4160.5 3184.75 M 4167.78 3181.48 L 4167.58 3181.07 L 4167.17 3180.66 L 4166.76 3180.46 L 4165.94 3180.46 L 4165.53 3180.66 L 4165.12 3181.07 L 4164.92 3181.48 L 4164.71 3182.1 L 4164.71 3183.12 L 4164.92 3183.73 L 4165.12 3184.14 L 4165.53 3184.55 L 4165.94 3184.75 L 4166.76 3184.75 L 4167.17 3184.55 L 4167.58 3184.14 L 4167.78 3183.73 M 4171.59 3180.46 L 4169.54 3180.46 L 4169.34 3182.3 L 4169.54 3182.1 L 4170.15 3181.89 L 4170.77 3181.89 L 4171.38 3182.1 L 4171.79 3182.5 L 4172 3183.12 L 4172 3183.53 L 4171.79 3184.14 L 4171.38 3184.55 L 4170.77 3184.75 L 4170.15 3184.75 L 4169.54 3184.55 L 4169.34 3184.35 L 4169.13 3183.94 M 4175.39 3180.46 L 4173.35 3183.32 L 4176.41 3183.32 M 4175.39 3180.46 L 4175.39 3184.75 M 4180.63 3180.46 L 4178.58 3184.75 M 4177.76 3180.46 L 4180.63 3180.46 M 4181.98 3180.46 L 4181.98 3184.75 M 4181.98 3180.46 L 4183.82 3180.46 L 4184.43 3180.66 L 4184.64 3180.87 L 4184.84 3181.28 L 4184.84 3181.69 L 4184.64 3182.1 L 4184.43 3182.3 L 4183.82 3182.5 M 4181.98 3182.5 L 4183.82 3182.5 L 4184.43 3182.71 L 4184.64 3182.91 L 4184.84 3183.32 L 4184.84 3183.94 L 4184.64 3184.35 L 4184.43 3184.55 L 4183.82 3184.75 L 4181.98 3184.75 M 4186.19 3186.19 L 4189.87 3186.19 M 4194.29 3181.48 L 4194.09 3181.07 L 4193.68 3180.66 L 4193.27 3180.46 L 4192.45 3180.46 L 4192.04 3180.66 L 4191.63 3181.07 L 4191.43 3181.48 L 4191.22 3182.1 L 4191.22 3183.12 L 4191.43 3183.73 L 4191.63 3184.14 L 4192.04 3184.55 L 4192.45 3184.75 L 4193.27 3184.75 L 4193.68 3184.55 L 4194.09 3184.14 L 4194.29 3183.73 M 4198.5 3180.46 L 4196.46 3184.75 M 4195.64 3180.46 L 4198.5 3180.46 M 4199.85 3181.28 L 4200.26 3181.07 L 4200.88 3180.46 L 4200.88 3184.75 M 4204.89 3181.89 L 4204.68 3182.5 L 4204.27 3182.91 L 4203.66 3183.12 L 4203.45 3183.12 L 4202.84 3182.91 L 4202.43 3182.5 L 4202.23 3181.89 L 4202.23 3181.69 L 4202.43 3181.07 L 4202.84 3180.66 L 4203.45 3180.46 L 4203.66 3180.46 L 4204.27 3180.66 L 4204.68 3181.07 L 4204.89 3181.89 L 4204.89 3182.91 L 4204.68 3183.94 L 4204.27 3184.55 L 4203.66 3184.75 L 4203.25 3184.75 L 4202.64 3184.55 L 4202.43 3184.14 M 4207.26 3180.46 L 4206.65 3180.66 L 4206.44 3181.07 L 4206.44 3181.48 L 4206.65 3181.89 L 4207.05 3182.1 L 4207.87 3182.3 L 4208.49 3182.5 L 4208.9 3182.91 L 4209.1 3183.32 L 4209.1 3183.94 L 4208.9 3184.35 L 4208.69 3184.55 L 4208.08 3184.75 L 4207.26 3184.75 L 4206.65 3184.55 L 4206.44 3184.35 L 4206.24 3183.94 L 4206.24 3183.32 L 4206.44 3182.91 L 4206.85 3182.5 L 4207.46 3182.3 L 4208.28 3182.1 L 4208.69 3181.89 L 4208.9 3181.48 L 4208.9 3181.07 L 4208.69 3180.66 L 4208.08 3180.46 L 4207.26 3180.46 M 4211.68 3180.46 L 4211.06 3180.66 L 4210.65 3181.28 L 4210.45 3182.3 L 4210.45 3182.91 L 4210.65 3183.94 L 4211.06 3184.55 L 4211.68 3184.75 L 4212.09 3184.75 L 4212.7 3184.55 L 4213.11 3183.94 L 4213.31 3182.91 L 4213.31 3182.3 L 4213.11 3181.28 L 4212.7 3180.66 L 4212.09 3180.46 L 4211.68 3180.46 M 4217.12 3181.07 L 4216.91 3180.66 L 4216.3 3180.46 L 4215.89 3180.46 L 4215.28 3180.66 L 4214.87 3181.28 L 4214.66 3182.3 L 4214.66 3183.32 L 4214.87 3184.14 L 4215.28 3184.55 L 4215.89 3184.75 L 4216.1 3184.75 L 4216.71 3184.55 L 4217.12 3184.14 L 4217.32 3183.53 L 4217.32 3183.32 L 4217.12 3182.71 L 4216.71 3182.3 L 4216.1 3182.1 L 4215.89 3182.1 L 4215.28 3182.3 L 4214.87 3182.71 L 4214.66 3183.32" fill="none"  stroke-width="0.6" c_note="note_name" /></g><g c_partid="part_pcbtext" c_etype="" c_origin="4150,3221.5" c_rotation="0" c_mirror="0" id="gge318" locked="0" layerid="3" c_shapetype="group" ><path c_fontsize="4.5" c_fontfamily="" c_text="BC337" d="M 4150 3216.96 L 4150 3221.25 M 4150 3216.96 L 4151.84 3216.96 L 4152.45 3217.16 L 4152.66 3217.37 L 4152.86 3217.78 L 4152.86 3218.19 L 4152.66 3218.6 L 4152.45 3218.8 L 4151.84 3219 M 4150 3219 L 4151.84 3219 L 4152.45 3219.21 L 4152.66 3219.41 L 4152.86 3219.82 L 4152.86 3220.44 L 4152.66 3220.85 L 4152.45 3221.05 L 4151.84 3221.25 L 4150 3221.25 M 4157.28 3217.98 L 4157.08 3217.57 L 4156.67 3217.16 L 4156.26 3216.96 L 4155.44 3216.96 L 4155.03 3217.16 L 4154.62 3217.57 L 4154.42 3217.98 L 4154.21 3218.6 L 4154.21 3219.62 L 4154.42 3220.23 L 4154.62 3220.64 L 4155.03 3221.05 L 4155.44 3221.25 L 4156.26 3221.25 L 4156.67 3221.05 L 4157.08 3220.64 L 4157.28 3220.23 M 4159.04 3216.96 L 4161.29 3216.96 L 4160.06 3218.6 L 4160.68 3218.6 L 4161.09 3218.8 L 4161.29 3219 L 4161.5 3219.62 L 4161.5 3220.03 L 4161.29 3220.64 L 4160.88 3221.05 L 4160.27 3221.25 L 4159.65 3221.25 L 4159.04 3221.05 L 4158.84 3220.85 L 4158.63 3220.44 M 4163.25 3216.96 L 4165.5 3216.96 L 4164.28 3218.6 L 4164.89 3218.6 L 4165.3 3218.8 L 4165.5 3219 L 4165.71 3219.62 L 4165.71 3220.03 L 4165.5 3220.64 L 4165.1 3221.05 L 4164.48 3221.25 L 4163.87 3221.25 L 4163.25 3221.05 L 4163.05 3220.85 L 4162.85 3220.44 M 4169.92 3216.96 L 4167.88 3221.25 M 4167.06 3216.96 L 4169.92 3216.96" fill="none"  stroke-width="0.6" c_note="note_pre" /></g><g c_partid="part_pcbtext" c_etype="" c_origin="4212,3165" c_rotation="0" c_mirror="" id="gge408" locked="0" layerid="3" c_shapetype="group" display="none"><path c_fontsize="4.5" c_fontfamily="" c_text="BC327-TA" d="M 4212 3160.46 L 4212 3164.75 M 4212 3160.46 L 4213.84 3160.46 L 4214.45 3160.66 L 4214.66 3160.87 L 4214.86 3161.28 L 4214.86 3161.69 L 4214.66 3162.1 L 4214.45 3162.3 L 4213.84 3162.5 M 4212 3162.5 L 4213.84 3162.5 L 4214.45 3162.71 L 4214.66 3162.91 L 4214.86 3163.32 L 4214.86 3163.94 L 4214.66 3164.35 L 4214.45 3164.55 L 4213.84 3164.75 L 4212 3164.75 M 4219.28 3161.48 L 4219.08 3161.07 L 4218.67 3160.66 L 4218.26 3160.46 L 4217.44 3160.46 L 4217.03 3160.66 L 4216.62 3161.07 L 4216.42 3161.48 L 4216.21 3162.1 L 4216.21 3163.12 L 4216.42 3163.73 L 4216.62 3164.14 L 4217.03 3164.55 L 4217.44 3164.75 L 4218.26 3164.75 L 4218.67 3164.55 L 4219.08 3164.14 L 4219.28 3163.73 M 4221.04 3160.46 L 4223.29 3160.46 L 4222.06 3162.1 L 4222.68 3162.1 L 4223.09 3162.3 L 4223.29 3162.5 L 4223.5 3163.12 L 4223.5 3163.53 L 4223.29 3164.14 L 4222.88 3164.55 L 4222.27 3164.75 L 4221.65 3164.75 L 4221.04 3164.55 L 4220.84 3164.35 L 4220.63 3163.94 M 4225.05 3161.48 L 4225.05 3161.28 L 4225.25 3160.87 L 4225.46 3160.66 L 4225.87 3160.46 L 4226.69 3160.46 L 4227.1 3160.66 L 4227.3 3160.87 L 4227.5 3161.28 L 4227.5 3161.69 L 4227.3 3162.1 L 4226.89 3162.71 L 4224.85 3164.75 L 4227.71 3164.75 M 4231.92 3160.46 L 4229.88 3164.75 M 4229.06 3160.46 L 4231.92 3160.46 M 4233.27 3162.91 L 4236.95 3162.91 M 4239.74 3160.46 L 4239.74 3164.75 M 4238.3 3160.46 L 4241.17 3160.46 M 4244.15 3160.46 L 4242.52 3164.75 M 4244.15 3160.46 L 4245.79 3164.75 M 4243.13 3163.32 L 4245.18 3163.32" fill="none"  stroke-width="0.6" c_note="note_name" /></g><g c_partid="part_pcbtext" c_etype="" c_origin="4212,3172" c_rotation="0" c_mirror="0" id="gge414" locked="0" layerid="3" c_shapetype="group" ><path c_fontsize="4.5" c_fontfamily="" c_text="BC327" d="M 4212 3167.46L4212 3171.75 M 4212 3167.46L4213.84 3167.46 L4214.45 3167.66 L4214.66 3167.87 L4214.86 3168.28 L4214.86 3168.69 L4214.66 3169.1 L4214.45 3169.3 L4213.84 3169.5 M 4212 3169.5L4213.84 3169.5 L4214.45 3169.71 L4214.66 3169.91 L4214.86 3170.32 L4214.86 3170.94 L4214.66 3171.35 L4214.45 3171.55 L4213.84 3171.75 L4212 3171.75 M 4219.28 3168.48L4219.08 3168.07 L4218.67 3167.66 L4218.26 3167.46 L4217.44 3167.46 L4217.03 3167.66 L4216.62 3168.07 L4216.42 3168.48 L4216.21 3169.1 L4216.21 3170.12 L4216.42 3170.73 L4216.62 3171.14 L4217.03 3171.55 L4217.44 3171.75 L4218.26 3171.75 L4218.67 3171.55 L4219.08 3171.14 L4219.28 3170.73 M 4221.04 3167.46L4223.29 3167.46 L4222.06 3169.1 L4222.68 3169.1 L4223.09 3169.3 L4223.29 3169.5 L4223.5 3170.12 L4223.5 3170.53 L4223.29 3171.14 L4222.88 3171.55 L4222.27 3171.75 L4221.65 3171.75 L4221.04 3171.55 L4220.84 3171.35 L4220.63 3170.94 M 4225.05 3168.48L4225.05 3168.28 L4225.25 3167.87 L4225.46 3167.66 L4225.87 3167.46 L4226.69 3167.46 L4227.1 3167.66 L4227.3 3167.87 L4227.5 3168.28 L4227.5 3168.69 L4227.3 3169.1 L4226.89 3169.71 L4224.85 3171.75 L4227.71 3171.75 M 4231.92 3167.46L4229.88 3171.75 M 4229.06 3167.46L4231.92 3167.46 " fill="none"  stroke-width="0.6" c_note="note_pre" /></g><g c_partid="part_pcbtext" c_etype="" c_origin="4189.71,3228.79" c_rotation="0" c_mirror="" id="gge504" locked="0" layerid="3" c_shapetype="group" display="none"><path c_fontsize="4.5" c_fontfamily="" c_text="BC327-TA" d="M 4189.71 3224.25 L 4189.71 3228.54 M 4189.71 3224.25 L 4191.55 3224.25 L 4192.16 3224.45 L 4192.37 3224.66 L 4192.57 3225.07 L 4192.57 3225.48 L 4192.37 3225.89 L 4192.16 3226.09 L 4191.55 3226.29 M 4189.71 3226.29 L 4191.55 3226.29 L 4192.16 3226.5 L 4192.37 3226.7 L 4192.57 3227.11 L 4192.57 3227.73 L 4192.37 3228.14 L 4192.16 3228.34 L 4191.55 3228.54 L 4189.71 3228.54 M 4196.99 3225.27 L 4196.79 3224.86 L 4196.38 3224.45 L 4195.97 3224.25 L 4195.15 3224.25 L 4194.74 3224.45 L 4194.33 3224.86 L 4194.13 3225.27 L 4193.92 3225.89 L 4193.92 3226.91 L 4194.13 3227.52 L 4194.33 3227.93 L 4194.74 3228.34 L 4195.15 3228.54 L 4195.97 3228.54 L 4196.38 3228.34 L 4196.79 3227.93 L 4196.99 3227.52 M 4198.75 3224.25 L 4201 3224.25 L 4199.77 3225.89 L 4200.39 3225.89 L 4200.8 3226.09 L 4201 3226.29 L 4201.21 3226.91 L 4201.21 3227.32 L 4201 3227.93 L 4200.59 3228.34 L 4199.98 3228.54 L 4199.36 3228.54 L 4198.75 3228.34 L 4198.55 3228.14 L 4198.34 3227.73 M 4202.76 3225.27 L 4202.76 3225.07 L 4202.96 3224.66 L 4203.17 3224.45 L 4203.58 3224.25 L 4204.4 3224.25 L 4204.81 3224.45 L 4205.01 3224.66 L 4205.21 3225.07 L 4205.21 3225.48 L 4205.01 3225.89 L 4204.6 3226.5 L 4202.56 3228.54 L 4205.42 3228.54 M 4209.63 3224.25 L 4207.59 3228.54 M 4206.77 3224.25 L 4209.63 3224.25 M 4210.98 3226.7 L 4214.66 3226.7 M 4217.45 3224.25 L 4217.45 3228.54 M 4216.01 3224.25 L 4218.88 3224.25 M 4221.86 3224.25 L 4220.23 3228.54 M 4221.86 3224.25 L 4223.5 3228.54 M 4220.84 3227.11 L 4222.89 3227.11" fill="none"  stroke-width="0.6" c_note="note_name" /></g><g c_partid="part_pcbtext" c_etype="" c_origin="4225,3195" c_rotation="0" c_mirror="0" id="gge510" locked="0" layerid="3" c_shapetype="group" ><path c_fontsize="4.5" c_fontfamily="" c_text="BC327" d="M 4225 3190.46 L 4225 3194.75 M 4225 3190.46 L 4226.84 3190.46 L 4227.45 3190.66 L 4227.66 3190.87 L 4227.86 3191.28 L 4227.86 3191.69 L 4227.66 3192.1 L 4227.45 3192.3 L 4226.84 3192.5 M 4225 3192.5 L 4226.84 3192.5 L 4227.45 3192.71 L 4227.66 3192.91 L 4227.86 3193.32 L 4227.86 3193.94 L 4227.66 3194.35 L 4227.45 3194.55 L 4226.84 3194.75 L 4225 3194.75 M 4232.28 3191.48 L 4232.08 3191.07 L 4231.67 3190.66 L 4231.26 3190.46 L 4230.44 3190.46 L 4230.03 3190.66 L 4229.62 3191.07 L 4229.42 3191.48 L 4229.21 3192.1 L 4229.21 3193.12 L 4229.42 3193.73 L 4229.62 3194.14 L 4230.03 3194.55 L 4230.44 3194.75 L 4231.26 3194.75 L 4231.67 3194.55 L 4232.08 3194.14 L 4232.28 3193.73 M 4234.04 3190.46 L 4236.29 3190.46 L 4235.06 3192.1 L 4235.68 3192.1 L 4236.09 3192.3 L 4236.29 3192.5 L 4236.5 3193.12 L 4236.5 3193.53 L 4236.29 3194.14 L 4235.88 3194.55 L 4235.27 3194.75 L 4234.65 3194.75 L 4234.04 3194.55 L 4233.84 3194.35 L 4233.63 3193.94 M 4238.05 3191.48 L 4238.05 3191.28 L 4238.25 3190.87 L 4238.46 3190.66 L 4238.87 3190.46 L 4239.69 3190.46 L 4240.1 3190.66 L 4240.3 3190.87 L 4240.5 3191.28 L 4240.5 3191.69 L 4240.3 3192.1 L 4239.89 3192.71 L 4237.85 3194.75 L 4240.71 3194.75 M 4244.92 3190.46 L 4242.88 3194.75 M 4242.06 3190.46 L 4244.92 3190.46" fill="none"  stroke-width="0.6" c_note="note_pre" /></g><g c_partid="part_pcbtext" c_etype="" c_origin="4111,3193" c_rotation="0" c_mirror="" id="gge600" locked="0" layerid="3" c_shapetype="group" display="none"><path c_fontsize="4.5" c_fontfamily="" c_text="10k" d="M 4111 3189.28 L 4111.41 3189.07 L 4112.02 3188.46 L 4112.02 3192.75 M 4114.6 3188.46 L 4113.99 3188.66 L 4113.58 3189.28 L 4113.37 3190.3 L 4113.37 3190.91 L 4113.58 3191.94 L 4113.99 3192.55 L 4114.6 3192.75 L 4115.01 3192.75 L 4115.62 3192.55 L 4116.03 3191.94 L 4116.24 3190.91 L 4116.24 3190.3 L 4116.03 3189.28 L 4115.62 3188.66 L 4115.01 3188.46 L 4114.6 3188.46 M 4117.59 3188.46 L 4117.59 3192.75 M 4119.63 3189.89 L 4117.59 3191.94 M 4118.4 3191.12 L 4119.84 3192.75" fill="none"  stroke-width="0.6" c_note="note_name" /></g><g c_partid="part_pcbtext" c_etype="" c_origin="4111,3200" c_rotation="0" c_mirror="0" id="gge606" locked="0" layerid="3" c_shapetype="group" ><path c_fontsize="4.5" c_fontfamily="" c_text="10K" d="M 4111 3196.28L4111.41 3196.07 L4112.02 3195.46 L4112.02 3199.75 M 4114.6 3195.46L4113.99 3195.66 L4113.58 3196.28 L4113.37 3197.3 L4113.37 3197.91 L4113.58 3198.94 L4113.99 3199.55 L4114.6 3199.75 L4115.01 3199.75 L4115.62 3199.55 L4116.03 3198.94 L4116.24 3197.91 L4116.24 3197.3 L4116.03 3196.28 L4115.62 3195.66 L4115.01 3195.46 L4114.6 3195.46 M 4117.59 3195.46L4117.59 3199.75 M 4120.45 3195.46L4117.59 3198.32 M 4118.61 3197.3L4120.45 3199.75 " fill="none"  stroke-width="0.6" c_note="note_pre" /></g><g c_partid="part_pcbtext" c_etype="" c_origin="4187,3152" c_rotation="0" c_mirror="" id="gge690" locked="0" layerid="3" c_shapetype="group" display="none"><path c_fontsize="4.5" c_fontfamily="" c_text="10k" d="M 4187 3148.28 L 4187.41 3148.07 L 4188.02 3147.46 L 4188.02 3151.75 M 4190.6 3147.46 L 4189.99 3147.66 L 4189.58 3148.28 L 4189.37 3149.3 L 4189.37 3149.91 L 4189.58 3150.94 L 4189.99 3151.55 L 4190.6 3151.75 L 4191.01 3151.75 L 4191.62 3151.55 L 4192.03 3150.94 L 4192.24 3149.91 L 4192.24 3149.3 L 4192.03 3148.28 L 4191.62 3147.66 L 4191.01 3147.46 L 4190.6 3147.46 M 4193.59 3147.46 L 4193.59 3151.75 M 4195.63 3148.89 L 4193.59 3150.94 M 4194.4 3150.12 L 4195.84 3151.75" fill="none"  stroke-width="0.6" c_note="note_name" /></g><g c_partid="part_pcbtext" c_etype="" c_origin="4187,3159" c_rotation="0" c_mirror="0" id="gge696" locked="0" layerid="3" c_shapetype="group" ><path c_fontsize="4.5" c_fontfamily="" c_text="10K" d="M 4187 3155.28L4187.41 3155.07 L4188.02 3154.46 L4188.02 3158.75 M 4190.6 3154.46L4189.99 3154.66 L4189.58 3155.28 L4189.37 3156.3 L4189.37 3156.91 L4189.58 3157.94 L4189.99 3158.55 L4190.6 3158.75 L4191.01 3158.75 L4191.62 3158.55 L4192.03 3157.94 L4192.24 3156.91 L4192.24 3156.3 L4192.03 3155.28 L4191.62 3154.66 L4191.01 3154.46 L4190.6 3154.46 M 4193.59 3154.46L4193.59 3158.75 M 4196.45 3154.46L4193.59 3157.32 M 4194.61 3156.3L4196.45 3158.75 " fill="none"  stroke-width="0.6" c_note="note_pre" /></g><g c_partid="part_pcbtext" c_etype="" c_origin="4190,3202.5" c_rotation="0" c_mirror="" id="gge780" locked="0" layerid="3" c_shapetype="group" display="none"><path c_fontsize="4.5" c_fontfamily="" c_text="10k" d="M 4190 3198.78 L 4190.41 3198.57 L 4191.02 3197.96 L 4191.02 3202.25 M 4193.6 3197.96 L 4192.99 3198.16 L 4192.58 3198.78 L 4192.37 3199.8 L 4192.37 3200.41 L 4192.58 3201.44 L 4192.99 3202.05 L 4193.6 3202.25 L 4194.01 3202.25 L 4194.62 3202.05 L 4195.03 3201.44 L 4195.24 3200.41 L 4195.24 3199.8 L 4195.03 3198.78 L 4194.62 3198.16 L 4194.01 3197.96 L 4193.6 3197.96 M 4196.59 3197.96 L 4196.59 3202.25 M 4198.63 3199.39 L 4196.59 3201.44 M 4197.4 3200.62 L 4198.84 3202.25" fill="none"  stroke-width="0.6" c_note="note_name" /></g><g c_partid="part_pcbtext" c_etype="" c_origin="4190,3209.5" c_rotation="0" c_mirror="0" id="gge786" locked="0" layerid="3" c_shapetype="group" ><path c_fontsize="4.5" c_fontfamily="" c_text="10K" d="M 4190 3205.78L4190.41 3205.57 L4191.02 3204.96 L4191.02 3209.25 M 4193.6 3204.96L4192.99 3205.16 L4192.58 3205.78 L4192.37 3206.8 L4192.37 3207.41 L4192.58 3208.44 L4192.99 3209.05 L4193.6 3209.25 L4194.01 3209.25 L4194.62 3209.05 L4195.03 3208.44 L4195.24 3207.41 L4195.24 3206.8 L4195.03 3205.78 L4194.62 3205.16 L4194.01 3204.96 L4193.6 3204.96 M 4196.59 3204.96L4196.59 3209.25 M 4199.45 3204.96L4196.59 3207.82 M 4197.61 3206.8L4199.45 3209.25 " fill="none"  stroke-width="0.6" c_note="note_pre" /></g><g c_partid="part_pcbtext" c_etype="" c_origin="4121,3174.5" c_rotation="0" c_mirror="" id="gge870" locked="0" layerid="3" c_shapetype="group" display="none"><path c_fontsize="4.5" c_fontfamily="" c_text="10k" d="M 4121 3170.78 L 4121.41 3170.57 L 4122.02 3169.96 L 4122.02 3174.25 M 4124.6 3169.96 L 4123.99 3170.16 L 4123.58 3170.78 L 4123.37 3171.8 L 4123.37 3172.41 L 4123.58 3173.44 L 4123.99 3174.05 L 4124.6 3174.25 L 4125.01 3174.25 L 4125.62 3174.05 L 4126.03 3173.44 L 4126.24 3172.41 L 4126.24 3171.8 L 4126.03 3170.78 L 4125.62 3170.16 L 4125.01 3169.96 L 4124.6 3169.96 M 4127.59 3169.96 L 4127.59 3174.25 M 4129.63 3171.39 L 4127.59 3173.44 M 4128.4 3172.62 L 4129.84 3174.25" fill="none"  stroke-width="0.6" c_note="note_name" /></g><g c_partid="part_pcbtext" c_etype="" c_origin="4121,3181.5" c_rotation="0" c_mirror="0" id="gge876" locked="0" layerid="3" c_shapetype="group" ><path c_fontsize="4.5" c_fontfamily="" c_text="10K" d="M 4121 3177.78L4121.41 3177.57 L4122.02 3176.96 L4122.02 3181.25 M 4124.6 3176.96L4123.99 3177.16 L4123.58 3177.78 L4123.37 3178.8 L4123.37 3179.41 L4123.58 3180.44 L4123.99 3181.05 L4124.6 3181.25 L4125.01 3181.25 L4125.62 3181.05 L4126.03 3180.44 L4126.24 3179.41 L4126.24 3178.8 L4126.03 3177.78 L4125.62 3177.16 L4125.01 3176.96 L4124.6 3176.96 M 4127.59 3176.96L4127.59 3181.25 M 4130.45 3176.96L4127.59 3179.82 M 4128.61 3178.8L4130.45 3181.25 " fill="none"  stroke-width="0.6" c_note="note_pre" /></g><g c_partid="part_pcbtext" c_etype="" c_origin="4039.2561,3190.6341" c_rotation="90" c_mirror="" id="gge96" locked="0" layerid="3" c_shapetype="group" display="none"><path c_fontsize="4.5" c_fontfamily="" c_text="CONN-TH_3P-P5.00" d="M 4035.7361 3187.5641 L 4035.3261 3187.7741 L 4034.9161 3188.1841 L 4034.7161 3188.5841 L 4034.7161 3189.4041 L 4034.9161 3189.8141 L 4035.3261 3190.2241 L 4035.7361 3190.4341 L 4036.3561 3190.6341 L 4037.3761 3190.6341 L 4037.9861 3190.4341 L 4038.3961 3190.2241 L 4038.8061 3189.8141 L 4039.0061 3189.4041 L 4039.0061 3188.5841 L 4038.8061 3188.1841 L 4038.3961 3187.7741 L 4037.9861 3187.5641 M 4034.7161 3184.9841 L 4034.9161 3185.3941 L 4035.3261 3185.8041 L 4035.7361 3186.0141 L 4036.3561 3186.2141 L 4037.3761 3186.2141 L 4037.9861 3186.0141 L 4038.3961 3185.8041 L 4038.8061 3185.3941 L 4039.0061 3184.9841 L 4039.0061 3184.1741 L 4038.8061 3183.7641 L 4038.3961 3183.3541 L 4037.9861 3183.1441 L 4037.3761 3182.9441 L 4036.3561 3182.9441 L 4035.7361 3183.1441 L 4035.3261 3183.3541 L 4034.9161 3183.7641 L 4034.7161 3184.1741 L 4034.7161 3184.9841 M 4034.7161 3181.5941 L 4039.0061 3181.5941 M 4034.7161 3181.5941 L 4039.0061 3178.7341 M 4034.7161 3178.7341 L 4039.0061 3178.7341 M 4034.7161 3177.3841 L 4039.0061 3177.3841 M 4034.7161 3177.3841 L 4039.0061 3174.5141 M 4034.7161 3174.5141 L 4039.0061 3174.5141 M 4037.1661 3173.1641 L 4037.1661 3169.4841 M 4034.7161 3166.7041 L 4039.0061 3166.7041 M 4034.7161 3168.1341 L 4034.7161 3165.2741 M 4034.7161 3163.9241 L 4039.0061 3163.9241 M 4034.7161 3161.0541 L 4039.0061 3161.0541 M 4036.7561 3163.9241 L 4036.7561 3161.0541 M 4040.4461 3159.7041 L 4040.4461 3156.0241 M 4034.7161 3154.2641 L 4034.7161 3152.0141 L 4036.3561 3153.2441 L 4036.3561 3152.6341 L 4036.5561 3152.2241 L 4036.7561 3152.0141 L 4037.3761 3151.8141 L 4037.7861 3151.8141 L 4038.3961 3152.0141 L 4038.8061 3152.4241 L 4039.0061 3153.0341 L 4039.0061 3153.6541 L 4038.8061 3154.2641 L 4038.6061 3154.4741 L 4038.1961 3154.6741 M 4034.7161 3150.4641 L 4039.0061 3150.4641 M 4034.7161 3150.4641 L 4034.7161 3148.6241 L 4034.9161 3148.0041 L 4035.1261 3147.8041 L 4035.5361 3147.5941 L 4036.1461 3147.5941 L 4036.5561 3147.8041 L 4036.7561 3148.0041 L 4036.9661 3148.6241 L 4036.9661 3150.4641 M 4037.1661 3146.2441 L 4037.1661 3142.5641 M 4034.7161 3141.2141 L 4039.0061 3141.2141 M 4034.7161 3141.2141 L 4034.7161 3139.3741 L 4034.9161 3138.7641 L 4035.1261 3138.5541 L 4035.5361 3138.3541 L 4036.1461 3138.3541 L 4036.5561 3138.5541 L 4036.7561 3138.7641 L 4036.9661 3139.3741 L 4036.9661 3141.2141 M 4034.7161 3134.5441 L 4034.7161 3136.5941 L 4036.5561 3136.7941 L 4036.3561 3136.5941 L 4036.1461 3135.9841 L 4036.1461 3135.3641 L 4036.3561 3134.7541 L 4036.7561 3134.3441 L 4037.3761 3134.1341 L 4037.7861 3134.1341 L 4038.3961 3134.3441 L 4038.8061 3134.7541 L 4039.0061 3135.3641 L 4039.0061 3135.9841 L 4038.8061 3136.5941 L 4038.6061 3136.7941 L 4038.1961 3137.0041 M 4037.9861 3132.5841 L 4038.1961 3132.7841 L 4038.3961 3132.5841 L 4038.1961 3132.3841 L 4037.9861 3132.5841 M 4034.7161 3129.8041 L 4034.9161 3130.4141 L 4035.5361 3130.8241 L 4036.5561 3131.0341 L 4037.1661 3131.0341 L 4038.1961 3130.8241 L 4038.8061 3130.4141 L 4039.0061 3129.8041 L 4039.0061 3129.3941 L 4038.8061 3128.7841 L 4038.1961 3128.3741 L 4037.1661 3128.1641 L 4036.5561 3128.1641 L 4035.5361 3128.3741 L 4034.9161 3128.7841 L 4034.7161 3129.3941 L 4034.7161 3129.8041 M 4034.7161 3125.5841 L 4034.9161 3126.2041 L 4035.5361 3126.6141 L 4036.5561 3126.8141 L 4037.1661 3126.8141 L 4038.1961 3126.6141 L 4038.8061 3126.2041 L 4039.0061 3125.5841 L 4039.0061 3125.1841 L 4038.8061 3124.5641 L 4038.1961 3124.1541 L 4037.1661 3123.9541 L 4036.5561 3123.9541 L 4035.5361 3124.1541 L 4034.9161 3124.5641 L 4034.7161 3125.1841 L 4034.7161 3125.5841" fill="none"  stroke-width="0.6" c_note="note_name" /></g><g c_partid="part_pcbtext" c_etype="" c_origin="4046.2561,3190.6343" c_rotation="90" c_mirror="" id="gge102" locked="0" layerid="3" c_shapetype="group" ><path c_fontsize="4.5" c_fontfamily="" c_text="P1" d="M 4041.7161 3190.6343 L 4046.0061 3190.6343 M 4041.7161 3190.6343 L 4041.7161 3188.7943 L 4041.9161 3188.1843 L 4042.1261 3187.9743 L 4042.5361 3187.7743 L 4043.1461 3187.7743 L 4043.5561 3187.9743 L 4043.7561 3188.1843 L 4043.9661 3188.7943 L 4043.9661 3190.6343 M 4042.5361 3186.4243 L 4042.3261 3186.0143 L 4041.7161 3185.3943 L 4046.0061 3185.3943" fill="none"  stroke-width="0.6" c_note="note_pre" /></g><path d="M 4169.3 3187.91 A 9.7796 9.7796 0 1 0 4153.7 3187.91" locked="0"  fill="none" stroke-width="1" c_helper_type="arc2" net="" layerid="3" id="gge243" /><path d="M 4169.3 3210.41 A 9.7796 9.7796 0 1 0 4153.7 3210.41" locked="0"  fill="none" stroke-width="1" c_helper_type="arc2" net="" layerid="3" id="gge339" /><path d="M 4220.8 3190.41 A 9.7796 9.7796 0 1 0 4205.2 3190.41" locked="0"  fill="none" stroke-width="1" c_helper_type="arc2" net="" layerid="3" id="gge435" /><path d="M 4214.7 3198.59 A 9.7796 9.7796 0 1 0 4230.3 3198.59" locked="0"  fill="none" stroke-width="1" c_helper_type="arc2" net="" layerid="3" id="gge531" /><polyline points="4323.1489 3243.7881 4047.5591 3243.7881 4047.5591 3046.938" stroke-width="1"  stroke-linecap="round" fill="none" layerid="10" net="" id="gge1008" locked="0" /><polyline points="4047.5591 3046.938 4323.1489 3046.938 4323.1489 3243.7881" stroke-width="1"  stroke-linecap="round" fill="none" layerid="10" net="" id="gge1005" locked="0" /></svg>